<svg xmlns="http://www.w3.org/2000/svg" width="23.945" height="26.291" viewBox="0 0 23.945 26.291">
  <defs>
    <style>
      .cls-1 {
        fill: #4ec7e7;
        opacity: 0.3;
        isolation: isolate;
      }

      .cls-2, .cls-3 {
        fill: none;
        stroke: #1b4660;
        stroke-linecap: round;
        stroke-linejoin: round;
      }

      .cls-2 {
        stroke-width: 0.933px;
      }

      .cls-3 {
        stroke-width: 1.417px;
      }
    </style>
  </defs>
  <g id="Group_87" data-name="Group 87" transform="translate(-542.143 -484.274)">
    <circle id="Ellipse_14" data-name="Ellipse 14" class="cls-1" cx="7.527" cy="7.527" r="7.527" transform="translate(542.143 495.511)"/>
    <g id="Group_2" data-name="Group 2">
      <path id="Path_210" data-name="Path 210" class="cls-2" d="M565.564,504.522a1.725,1.725,0,0,1-.567.958,1.665,1.665,0,0,1-.867.355c-1.1.006-3.507.006-6.21.006h-4.925c-2.7,0-5.1,0-6.21-.006a1.661,1.661,0,0,1-.867-.355,1.719,1.719,0,0,1-.567-.958,1.885,1.885,0,0,1,.051-1.1c.1-.273.221-.379.819-1.021.476-.516.715-.773.83-.921a5.661,5.661,0,0,0,.809-1.446,7.531,7.531,0,0,0,.506-2.288c.167-2.009-.064-2.549.021-3.646a8.077,8.077,0,0,1,2.355-4.876A7.331,7.331,0,0,1,554.8,487.4c.185-.012,1.134-.012,1.318,0a7.337,7.337,0,0,1,4.055,1.822,8.083,8.083,0,0,1,2.355,4.876c.088,1.1-.145,1.637.024,3.646a7.4,7.4,0,0,0,.5,2.288,5.6,5.6,0,0,0,.809,1.446c.115.149.355.406.83.921.6.642.715.748.818,1.021A1.894,1.894,0,0,1,565.564,504.522Z"/>
      <path id="Path_211" data-name="Path 211" class="cls-2" d="M557.92,505.84a2.463,2.463,0,0,1-4.925.1c0-.034,0-.067,0-.1Z"/>
      <line id="Line_5" data-name="Line 5" class="cls-3" y1="2.2" transform="translate(555.458 484.983)"/>
    </g>
  </g>
</svg>
