<svg xmlns="http://www.w3.org/2000/svg" width="44.97" height="44" viewBox="0 0 44.97 44">
  <g id="Group_185" data-name="Group 185" transform="translate(-1191 -514)">
    <circle id="Ellipse_17" data-name="Ellipse 17" cx="11.5" cy="11.5" r="11.5" transform="translate(1191 535)" fill="#46c8ea" opacity="0.3"/>
    <g id="Group_38" data-name="Group 38" transform="translate(523.84 24.155)">
      <path id="Path_233" data-name="Path 233" d="M691.5,493.573h-.828a.5.5,0,0,1,0-.992h.828a.5.5,0,1,1,0,.992Z" fill="#1b4660"/>
      <g id="Group_34" data-name="Group 34">
        <path id="Path_234" data-name="Path 234" d="M684.826,505.564h-3.434a.5.5,0,0,1-.5-.5v-3.435a.5.5,0,0,1,.5-.5h3.434a.5.5,0,0,1,.5.5v3.435A.5.5,0,0,1,684.826,505.564Zm-2.938-.993h2.442v-2.442h-2.442Z" fill="#1b4660"/>
      </g>
      <g id="Group_35" data-name="Group 35">
        <path id="Path_235" data-name="Path 235" d="M695.333,519.469h-7.439a.5.5,0,1,1,0-.992h7.439a.5.5,0,0,1,0,.992Z" fill="#1b4660"/>
      </g>
      <g id="Group_37" data-name="Group 37">
        <g id="Group_36" data-name="Group 36">
          <path id="Path_236" data-name="Path 236" d="M708.33,513.555a8.282,8.282,0,0,0,2.32-9.57,8.184,8.184,0,0,0-6.64-4.96v-4.18a.493.493,0,0,0-.49-.5h-5.23v-1.38a.5.5,0,0,0-.5-.5h-3.62a3.126,3.126,0,0,0-6.17,0h-3.61a.5.5,0,0,0-.5.5v1.38h-5.24a.493.493,0,0,0-.49.5v30.36a.491.491,0,0,0,.49.49h24.87a.491.491,0,0,0,.49-.49v-9.82a1.224,1.224,0,0,0,.19-.02.5.5,0,0,0,.42-.56.49.49,0,0,0-.56-.42,7.249,7.249,0,0,1-5.25-13.04l-.78,4.44.98.17,1.03-5.87-5.93-.59-.1.98,3.81.38a8.1,8.1,0,0,0-1.74,2.01h-8.19a.5.5,0,0,0,0,.99h7.67a8.184,8.184,0,0,0-.06,6.58,2.566,2.566,0,0,0,.11.24h-7.72a.5.5,0,0,0,0,.99h8.27a8.239,8.239,0,0,0,6.86,3.78v9.26H679.15v-29.37h4.74v.96a.493.493,0,0,0,.5.49h13.4a.5.5,0,0,0,.5-.49v-.96h4.73v3.63a7.45,7.45,0,0,0-1.32.12.5.5,0,1,0,.16.98,7.248,7.248,0,0,1,5.48,13l.77-4.44-.98-.17-1.03,5.87,5.93.6.1-.99ZM697.29,495.8H684.88v-2.34h3.58a.5.5,0,0,0,.5-.49,2.13,2.13,0,0,1,4.26,0,.491.491,0,0,0,.49.49h3.58Z" fill="#1b4660"/>
        </g>
      </g>
    </g>
    <path id="Path_237" data-name="Path 237" d="M684.826,513.381h-3.434a.5.5,0,0,1-.5-.5V509.45a.5.5,0,0,1,.5-.5h3.434a.5.5,0,0,1,.5.5v3.435A.5.5,0,0,1,684.826,513.381Zm-2.938-.992h2.442v-2.443h-2.442Z" transform="translate(523.84 24.155)" fill="#1b4660"/>
    <path id="Path_238" data-name="Path 238" d="M684.826,521.186h-3.434a.5.5,0,0,1-.5-.5v-3.434a.5.5,0,0,1,.5-.5h3.434a.5.5,0,0,1,.5.5v3.434A.5.5,0,0,1,684.826,521.186Zm-2.938-.992h2.442v-2.442h-2.442Z" transform="translate(523.84 24.155)" fill="#1b4660"/>
  </g>
</svg>
