<svg xmlns="http://www.w3.org/2000/svg" width="54.552" height="40.636" viewBox="0 0 54.552 40.636">
  <g id="Group_132" data-name="Group 132" transform="translate(-1052.504 -649)">
    <circle id="Ellipse_19" data-name="Ellipse 19" cx="11.5" cy="11.5" r="11.5" transform="translate(1065 649)" fill="#46c8ea" opacity="0.3"/>
    <g id="Group_68" data-name="Group 68" transform="translate(651.86 154.815)">
      <g id="Group_65" data-name="Group 65">
        <path id="Path_265" data-name="Path 265" d="M441.84,531.025c-.5.02-1.02.03-1.54.03a36.437,36.437,0,0,1-8.46-.87c-1.67-.45-2.68-1.01-2.68-1.64,0-.7,1.25-1.32,3.25-1.77v1.77C432.41,529.795,436.51,530.845,441.84,531.025Z" fill="none" stroke="#1b4660" stroke-linecap="round" stroke-linejoin="round" stroke-width="0.992"/>
        <path id="Path_266" data-name="Path 266" d="M451.44,530.315v1.5c0,1.38-4.99,2.51-11.14,2.51s-11.14-1.13-11.14-2.51v-3.27c0,.63,1.01,1.19,2.68,1.64a36.437,36.437,0,0,0,8.46.87c.52,0,1.04-.01,1.54-.03h.06c.54.02,1.08.03,1.65.03A37.344,37.344,0,0,0,451.44,530.315Z" fill="none" stroke="#1b4660" stroke-linecap="round" stroke-linejoin="round" stroke-width="0.992"/>
      </g>
      <g id="Group_66" data-name="Group 66">
        <path id="Path_267" data-name="Path 267" d="M454.7,525.285c0,.62-1.01,1.19-2.68,1.63-.58.15-1.25.29-1.98.41-.55.08-1.14.16-1.75.23-.31.03-.62.06-.95.09-.48.04-.98.07-1.49.1l-1.05.03c-.41.01-.83.02-1.25.02a35.887,35.887,0,0,1-8.46-.88c-.33-.09-.63-.18-.91-.28-.09-.03-.18-.06-.27-.1a37.139,37.139,0,0,0,7.87.74,39.835,39.835,0,0,0,6.49-.48h.01c2.82-.45,4.65-1.19,4.65-2.03v-.84C454.05,524.315,454.7,524.785,454.7,525.285Z" fill="none" stroke="#1b4660" stroke-linecap="round" stroke-linejoin="round" stroke-width="0.992"/>
        <path id="Path_268" data-name="Path 268" d="M454.7,525.285v3.26c0,.69-1.25,1.32-3.26,1.77a37.344,37.344,0,0,1-7.89.74c-.57,0-1.11-.01-1.65-.03h-.06c-5.33-.18-9.43-1.23-9.43-2.48v-2.43a11.784,11.784,0,0,0,1.42.4h.01a.144.144,0,0,0,.07.02c.09.04.18.07.27.1.28.1.58.19.91.28a35.887,35.887,0,0,0,8.46.88c.42,0,.84-.01,1.25-.02l1.05-.03c.51-.03,1.01-.06,1.49-.1.33-.03.64-.06.95-.09.61-.07,1.2-.15,1.75-.23.73-.12,1.4-.26,1.98-.41C453.69,526.475,454.7,525.905,454.7,525.285Z" fill="none" stroke="#1b4660" stroke-linecap="round" stroke-linejoin="round" stroke-width="0.992"/>
      </g>
      <g id="Group_67" data-name="Group 67">
        <path id="Path_269" data-name="Path 269" d="M452.93,521.505c0,.62-1.01,1.19-2.68,1.63-.11.03-.23.06-.35.09a37.319,37.319,0,0,1-8.12.79,42.214,42.214,0,0,1-6.34-.45,21.323,21.323,0,0,1-2.12-.43c-1.67-.44-2.68-1.01-2.68-1.63,0-1.39,5-2.51,11.14-2.51C447.94,518.995,452.93,520.115,452.93,521.505Z" fill="none" stroke="#1b4660" stroke-linecap="round" stroke-linejoin="round" stroke-width="0.992"/>
        <path id="Path_270" data-name="Path 270" d="M452.93,521.505v3.26c0,.84-1.83,1.58-4.65,2.03h-.01a39.835,39.835,0,0,1-6.49.48,37.139,37.139,0,0,1-7.87-.74.144.144,0,0,1-.07-.02h-.01a11.784,11.784,0,0,1-1.42-.4c-1.12-.39-1.77-.85-1.77-1.35v-3.26c0,.62,1.01,1.19,2.68,1.63a21.323,21.323,0,0,0,2.12.43,42.214,42.214,0,0,0,6.34.45,37.319,37.319,0,0,0,8.12-.79c.12-.03.24-.06.35-.09C451.92,522.7,452.93,522.125,452.93,521.505Z" fill="none" stroke="#1b4660" stroke-linecap="round" stroke-linejoin="round" stroke-width="0.992"/>
      </g>
    </g>
    <g id="Group_76" data-name="Group 76" transform="translate(651.86 154.815)">
      <g id="Group_69" data-name="Group 69">
        <path id="Path_271" data-name="Path 271" d="M407.24,530.025c.1.03.21.06.32.09a.127.127,0,0,1-.06-.01A1.975,1.975,0,0,1,407.24,530.025Z" fill="none" stroke="#1b4660" stroke-linecap="round" stroke-linejoin="round" stroke-width="0.992"/>
        <path id="Path_272" data-name="Path 272" d="M407.56,530.115c.22.06.45.12.7.18-.16-.03-.32-.07-.48-.11A1.864,1.864,0,0,1,407.56,530.115Z" fill="none" stroke="#1b4660" stroke-linecap="round" stroke-linejoin="round" stroke-width="0.992"/>
        <path id="Path_273" data-name="Path 273" d="M408.63,530.375h-.04c-.11-.02-.22-.05-.33-.08C408.38,530.325,408.5,530.345,408.63,530.375Z" fill="none" stroke="#1b4660" stroke-linecap="round" stroke-linejoin="round" stroke-width="0.992"/>
        <path id="Path_274" data-name="Path 274" d="M427.39,528.545v3.27c0,1.38-4.99,2.51-11.15,2.51-6.14,0-11.13-1.13-11.13-2.51v-3.27a.783.783,0,0,0,.02.14.58.58,0,0,0,.05.14.531.531,0,0,0,.06.1.987.987,0,0,0,.22.25,1.733,1.733,0,0,0,.2.15c.09.06.2.13.32.2.07.03.15.07.23.11.14.06.29.12.45.19a.143.143,0,0,1,.06.02c.08.03.16.06.25.09s.17.06.25.09h.02a1.975,1.975,0,0,0,.26.08,2.286,2.286,0,0,0,.28.08c.16.04.32.08.48.11.11.03.22.06.33.08.14.03.29.06.44.08a.588.588,0,0,1,.13.02c.25.05.5.09.77.13.82.13,1.72.24,2.68.31.32.03.65.05.98.07.13.01.27.01.41.02.72.03,1.47.05,2.24.05s1.52-.02,2.25-.05c.13-.01.27-.01.4-.02.33-.02.66-.04.98-.07.37-.03.74-.06,1.09-.1l.55-.06c.18-.02.35-.04.52-.07s.36-.05.53-.08c.27-.04.52-.08.77-.13a.693.693,0,0,1,.13-.02c.23-.04.44-.08.65-.13.11-.03.21-.05.31-.07s.19-.05.29-.07a.736.736,0,0,1,.14-.04c.14-.04.27-.08.4-.12a.09.09,0,0,1,.05-.01,4.228,4.228,0,0,0,.47-.17c.02-.01.04-.01.06-.02a3.987,3.987,0,0,0,.46-.19c.08-.04.15-.08.22-.11.12-.07.23-.14.33-.2a1.733,1.733,0,0,0,.2-.15.987.987,0,0,0,.22-.25.531.531,0,0,0,.06-.1.58.58,0,0,0,.05-.14A.783.783,0,0,0,427.39,528.545Z" fill="none" stroke="#1b4660" stroke-linecap="round" stroke-linejoin="round" stroke-width="0.992"/>
      </g>
      <g id="Group_70" data-name="Group 70">
        <path id="Path_275" data-name="Path 275" d="M427.39,525.285c0,.62-1.01,1.19-2.68,1.63h-.02a35.794,35.794,0,0,1-8.45.88c-.78,0-1.54-.02-2.28-.05a37.51,37.51,0,0,1-4.05-.4q-.45-.06-.87-.15l-.45-.09c-.1-.02-.21-.04-.31-.07a46.122,46.122,0,0,0,4.73.24,34.937,34.937,0,0,0,8.6-.92h.01c1.58-.43,2.53-.99,2.53-1.59v-1.25C426.15,523.975,427.39,524.585,427.39,525.285Z" fill="none" stroke="#1b4660" stroke-linecap="round" stroke-linejoin="round" stroke-width="0.992"/>
        <path id="Path_276" data-name="Path 276" d="M427.39,525.285v3.26a.783.783,0,0,1-.02.14.58.58,0,0,1-.05.14.531.531,0,0,1-.06.1,1.642,1.642,0,0,1-.22.25,1.733,1.733,0,0,1-.2.15c-.1.06-.21.13-.33.2-.07.03-.14.07-.22.11-.14.06-.3.13-.46.19-.02.01-.04.01-.06.02-.15.05-.31.11-.47.17a.09.09,0,0,0-.05.01c-.13.04-.26.08-.4.12a.736.736,0,0,0-.14.04c-.1.02-.19.04-.29.07s-.2.04-.31.07c-.2.04-.42.09-.65.13a.693.693,0,0,0-.13.02c-.25.05-.5.09-.77.13-.17.03-.35.06-.53.08s-.34.05-.52.07l-.55.06c-.35.04-.72.07-1.09.1-.32.03-.65.05-.98.07-.13.01-.27.01-.4.02-.73.03-1.48.05-2.25.05s-1.52-.02-2.24-.05c-.14-.01-.28-.01-.41-.02-.33-.02-.66-.04-.98-.07-.96-.07-1.86-.18-2.68-.31-.27-.04-.52-.08-.77-.13a.588.588,0,0,0-.13-.02c-.14-.03-.27-.05-.4-.08s-.25-.05-.37-.08c-.25-.06-.48-.12-.7-.18-.11-.03-.22-.06-.32-.09h-.02c-.08-.03-.17-.06-.25-.09s-.17-.06-.25-.09a.143.143,0,0,0-.06-.02c-.16-.07-.31-.13-.45-.19-.08-.04-.16-.08-.23-.11-.12-.07-.23-.14-.32-.2a1.733,1.733,0,0,1-.2-.15,1.642,1.642,0,0,1-.22-.25.531.531,0,0,1-.06-.1.58.58,0,0,1-.05-.14.783.783,0,0,1-.02-.14v-2.01c.74.17,1.59.31,2.51.43.2.02.41.05.62.07h.04c.1.03.21.05.31.07l.45.09q.42.09.87.15a37.51,37.51,0,0,0,4.05.4c.74.03,1.5.05,2.28.05a35.794,35.794,0,0,0,8.45-.88h.02C426.38,526.475,427.39,525.905,427.39,525.285Z" fill="none" stroke="#1b4660" stroke-linecap="round" stroke-linejoin="round" stroke-width="0.992"/>
      </g>
      <g id="Group_71" data-name="Group 71">
        <path id="Path_277" data-name="Path 277" d="M422.36,522.865c-.22.08-.46.15-.71.22h-.01a.989.989,0,0,1-.16.05,35.983,35.983,0,0,1-8.47.88c-.42,0-.84-.01-1.25-.02q-.435,0-.87-.03h-.03c-.23-.01-.46-.02-.68-.04-.9-.05-1.76-.13-2.56-.23h-.01c-.13-.01-.26-.03-.38-.05-.17-.02-.33-.04-.5-.07a.984.984,0,0,0-.17-.02c-.2-.04-.4-.07-.59-.11-.26-.05-.51-.1-.74-.15s-.46-.1-.68-.16c-1.67-.44-2.68-1.01-2.68-1.63,0-.81,1.7-1.53,4.34-1.99v1.11c0,1.01,2.67,1.88,6.5,2.28a44.272,44.272,0,0,0,4.63.23c1.24,0,2.43-.05,3.54-.13C421.4,522.965,421.88,522.915,422.36,522.865Z" fill="none" stroke="#1b4660" stroke-linecap="round" stroke-linejoin="round" stroke-width="0.992"/>
        <path id="Path_278" data-name="Path 278" d="M424.15,522.6v2.16c0,.6-.95,1.16-2.53,1.59h-.01a34.937,34.937,0,0,1-8.6.92,46.122,46.122,0,0,1-4.73-.24h-.04c-.21-.02-.42-.05-.62-.07-.92-.12-1.77-.26-2.51-.43-2-.45-3.24-1.08-3.24-1.77v-3.26c0,.62,1.01,1.19,2.68,1.63.22.06.44.11.68.16s.48.1.74.15c.19.04.39.07.59.11a.984.984,0,0,1,.17.02c.17.03.33.05.5.07.12.02.25.04.38.05h.01c.8.1,1.66.18,2.56.23.22.02.45.03.68.04h.03q.435.03.87.03c.41.01.83.02,1.25.02a35.983,35.983,0,0,0,8.47-.88.989.989,0,0,0,.16-.05h.01c.25-.07.49-.14.71-.22h.02C423.01,522.795,423.6,522.705,424.15,522.6Z" fill="none" stroke="#1b4660" stroke-linecap="round" stroke-linejoin="round" stroke-width="0.992"/>
      </g>
      <g id="Group_72" data-name="Group 72">
        <path id="Path_279" data-name="Path 279" d="M428.49,517.365c0,.62-1.01,1.19-2.68,1.63-.16.04-.33.08-.5.12s-.35.08-.53.11c-.36.08-.75.15-1.16.21-.82.13-1.72.23-2.68.3h-.01c-.28.03-.56.04-.85.06s-.59.03-.89.04c-.6.03-1.22.04-1.85.04-.77,0-1.53-.02-2.26-.05-.56-.03-1.1-.07-1.62-.11-.26-.02-.51-.05-.76-.07-.58-.06-1.12-.13-1.63-.21-.58-.09-1.13-.19-1.62-.31h-.02c-.19-.04-.37-.08-.55-.13-.29-.08-.57-.16-.82-.25a3.012,3.012,0,0,1-.36-.13,3.7,3.7,0,0,1-.4-.17,2.885,2.885,0,0,1-.35-.19,1.778,1.778,0,0,1-.49-.36,32.419,32.419,0,0,0,9.2,1.1c6.16,0,11.15-1.13,11.15-2.51v-.44C427.87,516.425,428.49,516.875,428.49,517.365Z" fill="none" stroke="#1b4660" stroke-linecap="round" stroke-linejoin="round" stroke-width="0.992"/>
        <path id="Path_280" data-name="Path 280" d="M428.49,517.365v3.26c0,.81-1.7,1.53-4.34,1.98-.55.1-1.14.19-1.77.26h-.02c-.48.05-.96.1-1.48.14-1.11.08-2.3.13-3.54.13a44.272,44.272,0,0,1-4.63-.23c-3.83-.4-6.5-1.27-6.5-2.28V517.8c.08.03.17.06.25.09a1.778,1.778,0,0,0,.49.36,2.885,2.885,0,0,0,.35.19,3.7,3.7,0,0,0,.4.17,3.012,3.012,0,0,0,.36.13c.25.09.53.17.82.25.18.05.36.09.55.13h.02c.49.12,1.04.22,1.62.31.51.08,1.05.15,1.63.21.25.02.5.05.76.07.52.04,1.06.08,1.62.11.73.03,1.49.05,2.26.05.63,0,1.25-.01,1.85-.04.3-.01.6-.02.89-.04s.57-.03.85-.06h.01c.96-.07,1.86-.17,2.68-.3.41-.06.8-.13,1.16-.21.18-.03.36-.07.53-.11s.34-.08.5-.12C427.48,518.555,428.49,517.985,428.49,517.365Z" fill="none" stroke="#1b4660" stroke-linecap="round" stroke-linejoin="round" stroke-width="0.992"/>
      </g>
      <g id="Group_73" data-name="Group 73">
        <path id="Path_281" data-name="Path 281" d="M426.81,513.225c0,.62-1.01,1.19-2.68,1.63-.21.06-.44.11-.67.16s-.47.1-.73.15h-.02q-.345.075-.72.12c-.6.1-1.25.18-1.93.24-.25.03-.51.05-.77.07-.24.02-.49.04-.74.05s-.49.03-.75.04c-.29.02-.59.03-.88.03-.42.01-.84.02-1.26.02s-.84-.01-1.25-.02c-.28,0-.56-.01-.83-.03-1.17-.05-2.28-.14-3.29-.26h-.03l-.38-.06c-.2-.03-.4-.06-.59-.08q-.345-.06-.66-.12c-.22-.04-.42-.08-.62-.12-.12-.02-.23-.05-.35-.07-.16-.04-.31-.08-.46-.12-1.67-.44-2.67-1.01-2.67-1.63a.62.62,0,0,1,.09-.32,37.262,37.262,0,0,0,7.66.7c5.69,0,10.39-.97,11.06-2.2C425.48,511.865,426.81,512.505,426.81,513.225Z" fill="none" stroke="#1b4660" stroke-linecap="round" stroke-linejoin="round" stroke-width="0.992"/>
        <path id="Path_282" data-name="Path 282" d="M426.81,513.225v3.26c0,1.38-4.99,2.51-11.15,2.51a32.419,32.419,0,0,1-9.2-1.1c-.08-.03-.17-.06-.25-.09-1.06-.38-1.68-.84-1.68-1.32v-3.26c0,.62,1,1.19,2.67,1.63.15.04.3.08.46.12.12.02.23.05.35.07.2.04.4.08.62.12s.43.08.66.12c.19.02.39.05.59.08l.38.06h.03c1.01.12,2.12.21,3.29.26.27.02.55.03.83.03.41.01.83.02,1.25.02s.84-.01,1.26-.02c.29,0,.59-.01.88-.03.26-.01.51-.02.75-.04s.5-.03.74-.05c.26-.02.52-.04.77-.07.68-.06,1.33-.14,1.93-.24.24-.03.49-.07.72-.12h.02c.26-.05.5-.1.73-.15s.46-.1.67-.16C425.8,514.415,426.81,513.845,426.81,513.225Z" fill="none" stroke="#1b4660" stroke-linecap="round" stroke-linejoin="round" stroke-width="0.992"/>
      </g>
      <g id="Group_74" data-name="Group 74">
        <path id="Path_283" data-name="Path 283" d="M422.18,508.985a11.33,11.33,0,0,1-1.43.48,41.617,41.617,0,0,1-16.93,0c-1.67-.45-2.68-1.01-2.68-1.63,0-.71,1.3-1.35,3.39-1.8v.92c0,1.38,4.99,2.51,11.13,2.51A41.293,41.293,0,0,0,422.18,508.985Z" fill="none" stroke="#1b4660" stroke-linecap="round" stroke-linejoin="round" stroke-width="0.992"/>
        <path id="Path_284" data-name="Path 284" d="M423.43,508.745v2.35a.613.613,0,0,1-.09.31c-.67,1.23-5.37,2.2-11.06,2.2a37.262,37.262,0,0,1-7.66-.7c-2.14-.45-3.48-1.1-3.48-1.81v-3.26c0,.62,1.01,1.18,2.68,1.63a41.617,41.617,0,0,0,16.93,0,11.33,11.33,0,0,0,1.43-.48C422.62,508.915,423.04,508.835,423.43,508.745Z" fill="none" stroke="#1b4660" stroke-linecap="round" stroke-linejoin="round" stroke-width="0.992"/>
      </g>
      <g id="Group_75" data-name="Group 75">
        <path id="Path_285" data-name="Path 285" d="M426.81,503.7c0,.62-1.01,1.18-2.68,1.63a26.713,26.713,0,0,1-4.24.68c-1.3.12-2.73.19-4.23.19a38.626,38.626,0,0,1-7.63-.68h-.02c-.28-.06-.55-.13-.81-.19-1.67-.45-2.67-1.01-2.67-1.63,0-1.4,4.99-2.51,11.13-2.51C421.82,501.185,426.81,502.3,426.81,503.7Z" fill="none" stroke="#1b4660" stroke-linecap="round" stroke-linejoin="round" stroke-width="0.992"/>
        <path id="Path_286" data-name="Path 286" d="M426.81,503.7v3.26c0,.7-1.29,1.34-3.38,1.79-.39.09-.81.17-1.25.24a41.293,41.293,0,0,1-6.52.48c-6.14,0-11.13-1.13-11.13-2.51V503.7c0,.62,1,1.18,2.67,1.63.26.06.53.13.81.19h.02a38.626,38.626,0,0,0,7.63.68c1.5,0,2.93-.07,4.23-.19a26.713,26.713,0,0,0,4.24-.68C425.8,504.875,426.81,504.315,426.81,503.7Z" fill="none" stroke="#1b4660" stroke-linecap="round" stroke-linejoin="round" stroke-width="0.992"/>
      </g>
    </g>
  </g>
</svg>
