<svg xmlns="http://www.w3.org/2000/svg" width="27.071" height="27.819" viewBox="0 0 27.071 27.819">
  <defs>
    <style>
      .cls-1 {
        fill: #4ec7e7;
        opacity: 0.3;
        isolation: isolate;
      }

      .cls-2 {
        fill: none;
        stroke: #1b4660;
        stroke-linecap: round;
        stroke-linejoin: round;
        stroke-width: 0.933px;
      }
    </style>
  </defs>
  <g id="Group_88" data-name="Group 88" transform="translate(-586.442 -482.101)">
    <circle id="Ellipse_14" data-name="Ellipse 14" class="cls-1" cx="7.527" cy="7.527" r="7.527" transform="translate(590.422 482.101)"/>
    <g id="Group_3" data-name="Group 3">
      <path id="Path_212" data-name="Path 212" class="cls-2" d="M596.913,499.422c-.553-.553-2.11-.057-2.841.673a20.362,20.362,0,0,0-4.046,5.2.766.766,0,0,0,1.024,1.023,20.5,20.5,0,0,0,5.188-4.06c.8-.8,1.2-2.314.675-2.839Z"/>
      <path id="Path_213" data-name="Path 213" class="cls-2" d="M589.3,493.488l-2.166,2.166a.766.766,0,0,0,.74,1.281,6.276,6.276,0,0,1,2.894-.269,41.139,41.139,0,0,1,3.169-4.836C593.286,491.414,591.14,491.647,589.3,493.488Z"/>
      <path id="Path_214" data-name="Path 214" class="cls-2" d="M599.868,509.347a.766.766,0,0,0,.886-.143l2.166-2.165c1.677-1.677,1.972-3.841,1.592-4.527a43.845,43.845,0,0,1-4.839,3.145,9.39,9.39,0,0,1-.217,2.894A.765.765,0,0,0,599.868,509.347Z"/>
      <path id="Path_215" data-name="Path 215" class="cls-2" d="M605.358,494.226a2.3,2.3,0,1,1,0-3.253l0,.005A2.3,2.3,0,0,1,605.358,494.226Z"/>
      <path id="Path_216" data-name="Path 216" class="cls-2" d="M613,484.04a.764.764,0,0,0-.707-.706,15.133,15.133,0,0,0-5.59.652,6.752,6.752,0,0,0,5.718,5.642A15.817,15.817,0,0,0,613,484.04Z"/>
      <path id="Path_217" data-name="Path 217" class="cls-2" d="M611.92,491.113c-2.2,5.622-7.389,9.85-11.839,12.534l-1.37.794c-1.322.738-1.945,1.032-2.343,1.235a.765.765,0,0,1-.893-.139l-.254-.254c.409-.345.841-.728,1.3-1.16a9.092,9.092,0,0,0,1.419-1.7h0a4.451,4.451,0,0,0,.7-1.793,2.419,2.419,0,0,0-2.927-2.926,3.786,3.786,0,0,0-.631.141,4.42,4.42,0,0,0-1.634.977c-.706.641-2,1.835-2.391,2.3l-.187-.187a.767.767,0,0,1-.143-.885c.115-.234.524-1.1,1.227-2.366l.794-1.37c3.478-5.785,7.881-9.9,12.479-11.788a8.378,8.378,0,0,0,6.7,6.6Z"/>
    </g>
  </g>
</svg>
