<svg xmlns="http://www.w3.org/2000/svg" width="38.136" height="35.559" viewBox="0 0 38.136 35.559">
  <g id="Group_182" data-name="Group 182" transform="translate(-392 -513.937)">
    <circle id="Ellipse_14" data-name="Ellipse 14" cx="11.5" cy="11.5" r="11.5" transform="translate(392 517)" fill="#46c8ea" opacity="0.3"/>
    <g id="Group_12" data-name="Group 12" transform="translate(-241.223 319.835)">
      <path id="Path_210" data-name="Path 210" d="M670.777,226.889a2.508,2.508,0,0,1-.826,1.4,2.413,2.413,0,0,1-1.264.517c-1.608.008-5.113.008-9.054.008h-7.18c-3.937,0-7.441,0-9.054-.008a2.414,2.414,0,0,1-1.264-.517,2.505,2.505,0,0,1-.827-1.4,2.748,2.748,0,0,1,.075-1.6c.15-.4.323-.552,1.193-1.489.693-.752,1.043-1.127,1.211-1.343a8.2,8.2,0,0,0,1.18-2.108,10.952,10.952,0,0,0,.738-3.336c.243-2.929-.093-3.716.031-5.316a11.783,11.783,0,0,1,3.434-7.11,10.7,10.7,0,0,1,5.912-2.656c.27-.018,1.653-.018,1.922,0a10.7,10.7,0,0,1,5.912,2.656,11.784,11.784,0,0,1,3.433,7.11c.128,1.6-.212,2.387.035,5.316a10.79,10.79,0,0,0,.733,3.336,8.191,8.191,0,0,0,1.18,2.108c.168.217.517.592,1.211,1.343.87.936,1.043,1.091,1.193,1.489A2.745,2.745,0,0,1,670.777,226.889Z" transform="translate(0 -3.238)" fill="none" stroke="#1b4660" stroke-linecap="round" stroke-linejoin="round" stroke-width="0.992"/>
      <path id="Path_211" data-name="Path 211" d="M669.977,253.584a3.59,3.59,0,1,1-7.18,0Z" transform="translate(-10.344 -28.011)" fill="none" stroke="#1b4660" stroke-linecap="round" stroke-linejoin="round" stroke-width="0.992"/>
      <line id="Line_5" data-name="Line 5" y1="3.207" transform="translate(656.043 195.165)" fill="none" stroke="#1b4660" stroke-linecap="round" stroke-linejoin="round" stroke-width="2.126"/>
    </g>
  </g>
</svg>
